<svg width="22" height="22" viewBox="0 0 22 22" fill="none" xmlns="http://www.w3.org/2000/svg">
<path d="M7.0625 14.625H16V15.3125H7.0625V14.625Z" fill="#3369F3"/>
<path fill-rule="evenodd" clip-rule="evenodd" d="M11.864 5.6875C11.6854 5.6906 11.515 5.76309 11.3889 5.88963L5.54516 11.7334C5.41628 11.8623 5.34387 12.0371 5.34387 12.2194C5.34387 12.4017 5.41628 12.5766 5.54516 12.7055L6.77785 13.9375H11.4721L15.4548 9.95481C15.5837 9.82589 15.6561 9.65105 15.6561 9.46875C15.6561 9.28645 15.5837 9.11161 15.4548 8.98269L12.361 5.88894C12.2959 5.82389 12.2183 5.7726 12.1329 5.73812C12.0475 5.70363 11.956 5.68665 11.864 5.68819V5.6875ZM9.40066 9.74375L11.5574 11.8716C11.5574 11.8716 11.9011 12.2153 11.5574 12.5591L10.885 13.25H7.3361L6.2471 12.2188L8.71316 9.74306C9.05691 9.39931 9.40066 9.74306 9.40066 9.74306V9.74375Z" fill="#3369F3"/>
<circle cx="11" cy="11" r="10.25" stroke="#3369F3" stroke-width="1.5"/>
</svg>
